<svg width="170" height="170" viewBox="0 0 170 170" fill="none" xmlns="http://www.w3.org/2000/svg">
<path d="M0 15C0 6.71573 6.71573 0 15 0H155C163.284 0 170 6.71573 170 15V155C170 163.284 163.284 170 155 170H15C6.71573 170 0 163.284 0 155V15Z" fill="white"/>
<path d="M91.33 122.65C83.1167 122.65 76.0767 121.22 70.21 118.36C64.3433 115.427 59.8333 111.283 56.68 105.93C53.5267 100.503 51.95 94.0133 51.95 86.46C51.95 78.4667 53.6 71.5 56.9 65.56C60.2733 59.62 64.9667 55 70.98 51.7C76.9933 48.4 83.9967 46.75 91.99 46.75C96.5367 46.75 100.827 47.2633 104.86 48.29C108.967 49.3167 112.597 50.7833 115.75 52.69L111.9 65.89C109.04 64.13 105.85 62.7733 102.33 61.82C98.8833 60.7933 95.4367 60.28 91.99 60.28C87.15 60.28 82.8967 61.3433 79.23 63.47C75.5633 65.5233 72.7033 68.42 70.65 72.16C68.5967 75.9 67.57 80.3 67.57 85.36C67.57 92.6933 69.77 98.4867 74.17 102.74C78.6433 106.92 84.73 109.01 92.43 109.01C95.51 109.01 98.37 108.79 101.01 108.35V93.17H91.77V80.3H115.64V118.36C108.087 121.22 99.9833 122.65 91.33 122.65Z" fill="black"/>
<path d="M142 25C142 27.7614 139.761 30 137 30H47C38.7157 30 32 36.7157 32 45V125C32 133.284 38.7157 140 47 140H137C139.761 140 142 142.239 142 145C142 147.761 139.761 150 137 150H37C28.7157 150 22 143.284 22 135V35C22 26.7157 28.7157 20 37 20H137C139.761 20 142 22.2386 142 25Z" fill="black"/>
</svg>
